<svg xmlns="http://www.w3.org/2000/svg" xmlns:xlink="http://www.w3.org/1999/xlink" width="473pt" height="299pt" viewBox="0 0 473 299"><g id="graph0" class="graph" transform="scale(1 1) rotate(0) translate(4 295)"><polygon fill="#fff" stroke="transparent" points="-4 4 -4 -295 469 -295 469 4 -4 4"/><g id="clust1" class="cluster"><title>cluster_external</title><polygon fill="none" stroke="#000" points="8 -208 8 -283 275 -283 275 -208 8 -208"/><text x="141.5" y="-267.8" font-family="Times,serif" font-size="14" text-anchor="middle">External Inputs</text></g><g id="clust2" class="cluster"><title>cluster_system</title><polygon fill="none" stroke="#000" points="283 -208 283 -283 457 -283 457 -208 283 -208"/><text x="370" y="-267.8" font-family="Times,serif" font-size="14" text-anchor="middle">System Inputs</text></g><g id="node1" class="node"><title>materials</title><polygon fill="none" stroke="#000" points="83.5 -252 16.5 -252 16.5 -216 83.5 -216 83.5 -252"/><text x="50" y="-230.3" font-family="Times,serif" font-size="14" text-anchor="middle">materials</text></g><g id="node6" class="node"><title>BuildExecution</title><ellipse cx="184" cy="-90" fill="none" stroke="#000" rx="65.79" ry="18"/><text x="184" y="-86.3" font-family="Times,serif" font-size="14" text-anchor="middle">BuildExecution</text></g><g id="edge5" class="edge"><title>materials-&gt;BuildExecution</title><path fill="none" stroke="#000" d="M66.16,-215.87C89.83,-190.79 134.04,-143.95 161.06,-115.31"/><polygon fill="#000" stroke="#000" points="163.88 -117.42 168.2 -107.75 158.79 -112.62 163.88 -117.42"/></g><g id="node7" class="node"><title>recipe</title><polygon fill="none" stroke="#000" points="211 -180 157 -180 157 -144 211 -144 211 -180"/><text x="184" y="-158.3" font-family="Times,serif" font-size="14" text-anchor="middle">recipe</text></g><g id="edge1" class="edge"><title>materials-&gt;recipe</title><path fill="none" stroke="#000" d="M78.99,-215.79C83.65,-213.13 88.44,-210.45 93,-208 110.65,-198.52 130.57,-188.58 147.27,-180.47"/><polygon fill="#000" stroke="#000" points="149.2 -183.42 156.68 -175.92 146.15 -177.12 149.2 -183.42"/></g><g id="node2" class="node"><title>entryPoint</title><polygon fill="none" stroke="#000" points="174.5 -252 101.5 -252 101.5 -216 174.5 -216 174.5 -252"/><text x="138" y="-230.3" font-family="Times,serif" font-size="14" text-anchor="middle">entryPoint</text></g><g id="edge2" class="edge"><title>entryPoint-&gt;recipe</title><path fill="none" stroke="#000" d="M149.37,-215.7C154.72,-207.56 161.2,-197.69 167.11,-188.7"/><polygon fill="#000" stroke="#000" points="170.19 -190.38 172.76 -180.1 164.34 -186.54 170.19 -190.38"/></g><g id="node3" class="node"><title>arguments</title><polygon fill="none" stroke="#000" points="267 -252 193 -252 193 -216 267 -216 267 -252"/><text x="230" y="-230.3" font-family="Times,serif" font-size="14" text-anchor="middle">arguments</text></g><g id="edge3" class="edge"><title>arguments-&gt;recipe</title><path fill="none" stroke="#000" d="M218.63,-215.7C213.28,-207.56 206.8,-197.69 200.89,-188.7"/><polygon fill="#000" stroke="#000" points="203.66 -186.54 195.24 -180.1 197.81 -190.38 203.66 -186.54"/></g><g id="node4" class="node"><title>environment</title><polygon fill="none" stroke="#000" points="449 -252 363 -252 363 -216 449 -216 449 -252"/><text x="406" y="-230.3" font-family="Times,serif" font-size="14" text-anchor="middle">environment</text></g><g id="edge6" class="edge"><title>environment-&gt;BuildExecution</title><path fill="none" stroke="#000" d="M379.22,-215.87C338.66,-189.92 261.68,-140.69 217.47,-112.41"/><polygon fill="#000" stroke="#000" points="219.14 -109.32 208.83 -106.88 215.36 -115.22 219.14 -109.32"/></g><g id="node5" class="node"><title>type</title><polygon fill="none" stroke="#000" points="345 -252 291 -252 291 -216 345 -216 345 -252"/><text x="318" y="-230.3" font-family="Times,serif" font-size="14" text-anchor="middle">type</text></g><g id="edge4" class="edge"><title>type-&gt;recipe</title><path fill="none" stroke="#000" d="M292.27,-215.85C287.9,-213.13 283.36,-210.42 279,-208 260.15,-197.55 238.46,-187.16 220.58,-179"/><polygon fill="#000" stroke="#000" points="221.63 -175.64 211.08 -174.71 218.75 -182.02 221.63 -175.64"/></g><g id="node8" class="node"><title>subject</title><polygon fill="none" stroke="#000" points="211.5 -36 156.5 -36 156.5 0 211.5 0 211.5 -36"/><text x="184" y="-14.3" font-family="Times,serif" font-size="14" text-anchor="middle">subject</text></g><g id="edge8" class="edge"><title>BuildExecution-&gt;subject</title><path fill="none" stroke="#000" d="M184,-71.7C184,-63.98 184,-54.71 184,-46.11"/><polygon fill="#000" stroke="#000" points="187.5 -46.1 184 -36.1 180.5 -46.1 187.5 -46.1"/></g><g id="edge7" class="edge"><title>recipe-&gt;BuildExecution</title><path fill="none" stroke="#000" d="M184,-143.7C184,-135.98 184,-126.71 184,-118.11"/><polygon fill="#000" stroke="#000" points="187.5 -118.1 184 -108.1 180.5 -118.1 187.5 -118.1"/></g></g></svg>